PathFileType	4	(X/Y/Z)	 s09c0202.trc
DataRate	CameraRate	NumFrames	NumMarkers	Units	OrigDataRate	OrigDataStartFrame	OrigNumFrames
200	200	4	50	mm	200	751	2000
Frame#	Time	racr			lacr			c7			jug			rlel			rdr			llel			ldr			s2			lic			ric			lasi			rasi			rpsi			lpsi			rgt			lgt			rth1			rth2			rth3			rth4			rlfc			rmfc			rsh1			rsh2			rsh3			rsh4			rlmal			rmmal			rcal			rtoe			rmt5			lth1			lth2			lth4			lth3			llfc			lmfc			llmal			lmmal			lcal			lmt5			lsh1			lsh2			lsh3			lsh4			ltoe			SBIKE			LBIKE			RBIKE			
		X1	Y1	Z1	X2	Y2	Z2	X3	Y3	Z3	X4	Y4	Z4	X5	Y5	Z5	X6	Y6	Z6	X7	Y7	Z7	X8	Y8	Z8	X9	Y9	Z9	X10	Y10	Z10	X11	Y11	Z11	X12	Y12	Z12	X13	Y13	Z13	X14	Y14	Z14	X15	Y15	Z15	X16	Y16	Z16	X17	Y17	Z17	X18	Y18	Z18	X19	Y19	Z19	X20	Y20	Z20	X21	Y21	Z21	X22	Y22	Z22	X23	Y23	Z23	X24	Y24	Z24	X25	Y25	Z25	X26	Y26	Z26	X27	Y27	Z27	X28	Y28	Z28	X29	Y29	Z29	X30	Y30	Z30	X31	Y31	Z31	X32	Y32	Z32	X33	Y33	Z33	X34	Y34	Z34	X35	Y35	Z35	X36	Y36	Z36	X37	Y37	Z37	X38	Y38	Z38	X39	Y39	Z39	X40	Y40	Z40	X41	Y41	Z41	X42	Y42	Z42	X43	Y43	Z43	X44	Y44	Z44	X45	Y45	Z45	X46	Y46	Z46	X47	Y47	Z47	X48	Y48	Z48	X49	Y49	Z49	X50	Y50	Z50	
751	3.7550	517.749306	1231.687314	-90.803933	476.642463	1220.862779	-437.741877	477.637915	1301.986746	-262.302631	455.184253	1166.529001	-257.885808	474.844690	1022.891217	54.836944	669.260101	906.924847	-30.555352	419.491048	962.570934	-540.712218	652.173974	910.732376	-449.364580	-5.720053	1129.564886	-193.966245	111.029035	1154.627877	-353.292368	143.974750	1110.940978	-55.906721	157.984508	1097.918886	-336.787564	185.711119	1062.190908	-85.510426	28.368700	1152.158740	-133.659673	12.947766	1175.438986	-237.341878	116.717746	963.739722	-30.267705	98.587925	1050.642479	-400.343034	208.527183	857.638664	-47.090563	278.094939	804.874507	-57.476651	306.623901	722.264515	-74.810179	303.780413	825.009614	-75.013204	345.716425	633.073031	-113.738784	322.416839	619.984386	-209.367547	288.015813	551.615634	-78.316978	269.825144	464.529261	-90.883014	211.995643	398.998656	-84.532204	289.837108	457.066034	-124.911491	162.734491	309.499884	-79.414288	164.340976	313.440206	-158.144579	81.410288	324.462413	-117.309278	272.554396	140.646512	-128.367898	203.992184	183.931650	-61.507292	227.893072	987.044080	-397.435817	311.665088	976.420188	-386.250981	323.806724	1006.041396	-364.771417	384.307941	922.427312	-388.245374	462.488761	852.648396	-371.747370	472.769810	831.526714	-273.527994	296.556100	522.328978	-407.751713	306.070171	530.905529	-331.112254	220.111249	476.142961	-371.668477	393.300352	452.550298	-434.164129	418.322225	765.215408	-401.096830	398.076775	680.141731	-398.594173	336.733330	616.128721	-404.156184	420.195149	668.661334	-367.974452	482.567409	482.783722	-365.501205	-64.993130	852.607951	-236.623194	20.912668	85.601717	-441.965417	21.083061	84.148260	-43.623723	
752	3.7600	517.699909	1229.615871	-91.471014	475.746266	1220.533403	-438.938009	477.897267	1301.002912	-262.984530	454.234311	1165.705382	-259.042895	474.567877	1022.178237	55.700794	668.994925	906.721511	-30.043064	418.796209	961.672479	-541.260845	651.621281	910.661143	-450.040882	-6.071667	1128.699473	-193.777868	110.022816	1154.401780	-353.890824	143.900992	1110.470571	-56.296055	157.609726	1098.043721	-337.774397	185.365330	1061.791880	-86.380263	27.833668	1151.446757	-133.413347	12.370523	1174.756178	-237.158819	117.994748	963.360521	-30.881074	97.668044	1048.437796	-400.526108	211.498383	859.378302	-48.331122	281.665047	807.735793	-59.303913	311.554226	725.041734	-76.369615	306.893601	828.028661	-77.127054	350.096153	636.059385	-114.957157	325.840066	623.136445	-209.917495	290.892035	555.595804	-79.323997	270.128289	468.928848	-92.136233	211.528468	404.608796	-85.041507	290.519419	460.475224	-126.047267	160.581790	316.097521	-79.690078	161.976718	320.017252	-158.457263	79.520547	333.549047	-117.365449	265.091340	144.107040	-128.251096	197.910302	189.513240	-61.492867	226.727720	982.815162	-398.938362	310.465340	970.880285	-388.334122	323.267558	1000.665163	-367.530222	382.417192	915.832522	-389.800870	460.835234	845.889329	-373.339299	470.790410	824.737728	-275.870227	300.087081	511.926950	-408.580244	309.441039	520.978639	-331.754882	225.240735	463.283782	-372.075436	399.049501	445.308201	-434.652458	416.866519	756.960780	-402.909513	398.233140	671.385200	-400.051886	338.177371	606.174188	-405.350163	420.566902	660.613043	-369.411550	487.213652	478.701967	-365.943185	-65.032639	852.495949	-236.912384	20.894920	85.447882	-441.968113	21.089118	84.119467	-43.641295	
753	3.7650	517.715888	1227.611999	-91.790170	475.156289	1220.353646	-439.939063	478.237485	1300.727285	-263.865818	453.543727	1165.065660	-260.060942	474.246750	1021.462182	56.619644	668.624511	906.530977	-29.672287	418.065080	961.001449	-541.779953	651.112334	910.606290	-450.742297	-6.441112	1127.818792	-193.750253	109.186453	1154.014613	-354.657518	143.685134	1109.807460	-56.879900	157.270903	1097.848238	-338.904219	185.216381	1061.502432	-87.175420	27.339822	1150.646403	-133.308508	11.797538	1173.792598	-237.066084	119.418831	963.003790	-31.458626	96.846039	1045.994521	-400.956626	214.550472	861.178577	-49.583602	285.271330	810.530450	-61.174074	316.214163	728.258325	-78.172230	309.952064	831.120359	-79.485170	354.233086	639.168606	-116.085343	328.088071	626.797632	-211.820970	293.693754	559.587771	-80.172609	271.044180	473.412745	-92.836561	211.168364	410.325192	-85.547784	291.136353	464.447399	-126.875890	158.419221	323.082688	-79.897280	159.537763	326.458707	-158.806954	77.426852	343.286688	-117.547873	258.085589	148.282385	-128.168997	192.070343	195.542808	-61.545074	225.598970	978.340655	-400.535904	309.124737	965.192171	-390.577636	322.644958	994.829448	-370.469707	380.014248	908.210308	-391.421492	456.792502	838.258973	-376.101645	468.601184	817.868430	-278.517902	303.834045	501.057739	-409.340718	312.800165	511.050976	-332.423589	230.785765	450.677877	-371.797925	404.508465	437.448317	-434.621977	415.359023	748.039642	-404.915426	398.285667	662.284671	-401.566843	339.648808	596.025708	-406.510531	420.971726	652.189300	-370.716142	491.569823	473.876122	-366.402199	-65.061739	852.389351	-237.229662	20.889769	85.281748	-441.997925	21.105083	84.087712	-43.658979	
754	3.7700	517.711238	1225.717518	-91.879060	474.617354	1220.349809	-440.915896	477.563004	1300.257919	-263.634535	453.162496	1164.577731	-261.004691	473.893981	1020.716390	57.632998	668.130494	906.350966	-29.461556	417.367564	960.544023	-542.168060	650.587969	910.506883	-451.474817	-6.921035	1126.817592	-193.870512	108.401171	1153.531036	-355.559653	143.800015	1109.313567	-57.450659	156.867299	1097.302046	-340.060018	185.210546	1061.172694	-88.091911	26.871528	1149.926025	-133.383810	11.437289	1172.880284	-237.140378	120.819335	962.705914	-32.161696	96.141940	1043.185395	-401.392660	217.526692	863.168355	-50.607665	288.794393	813.541445	-63.044855	320.688665	731.602430	-80.360767	312.956443	834.319536	-81.737593	358.219916	642.322662	-116.973048	331.098857	630.006253	-212.849724	296.339854	563.788910	-81.028785	271.864430	478.062988	-93.627400	210.677394	416.297922	-86.026034	291.776266	468.621234	-127.576938	156.315057	330.241539	-80.228363	157.239797	333.313873	-159.114834	75.782601	352.690837	-117.659596	251.310002	152.778795	-128.109489	186.476381	201.913150	-61.545598	224.416565	973.642060	-402.215206	307.850985	959.116207	-392.837172	322.085505	988.843357	-373.426807	377.710781	900.812350	-393.512072	453.551574	830.136659	-378.323304	466.756020	809.396564	-281.384432	307.537080	490.223302	-410.121894	316.055085	500.734882	-333.183405	235.773010	438.164867	-372.348361	409.739165	429.591461	-435.043744	413.536315	739.069285	-406.975684	398.293964	653.055366	-402.907216	341.100101	585.526511	-407.646520	420.995839	643.423288	-371.813084	495.710782	468.501236	-366.791840	-65.075236	852.347939	-237.575581	20.919101	85.173143	-442.079535	21.125232	84.086790	-43.654405	
